<svg width="300" height="300" viewBox="0 0 300 300" fill="none" xmlns="http://www.w3.org/2000/svg">
<path d="M19.1673 279.339C-6.84475 252.52 -5.7781 209.499 20.6402 183.081L96.5043 107.217C102.277 101.444 111.64 101.444 117.412 107.217C123.185 112.99 123.185 122.352 117.412 128.125L41.3962 204.141C26.5788 218.958 25.6337 243.097 40.0062 258.348C54.9398 274.196 79.9929 274.475 95.2829 259.185L98.9113 255.557C104.684 249.784 114.046 249.784 119.819 255.557C125.592 261.33 125.592 270.692 119.819 276.465L116.191 280.094C89.3941 306.885 45.6409 306.633 19.1673 279.339Z" fill="white"/>
<path d="M280.831 20.6621C306.843 47.4783 305.776 90.502 279.358 116.92L203.494 192.784C197.721 198.557 188.359 198.557 182.586 192.784C176.813 187.012 176.813 177.649 182.586 171.876L258.602 95.8603C273.419 81.0428 274.364 56.9043 259.992 41.653C245.058 25.8048 220.005 25.5257 204.715 40.8157L201.087 44.4441C195.314 50.2169 185.952 50.2169 180.179 44.4441C174.406 38.6713 174.406 29.3089 180.179 23.5361L183.807 19.9077C210.604 -6.88365 254.357 -6.63496 280.831 20.6621Z" fill="white"/>
<path d="M20.6632 19.165C47.4821 -6.84709 90.503 -5.7804 116.921 20.6379L192.785 96.502C198.558 102.275 198.558 111.637 192.785 117.41C187.013 123.183 177.65 123.183 171.877 117.41L95.8613 41.3939C81.0438 26.5765 56.9054 25.6314 41.6541 40.0039C25.8059 54.9374 25.5268 79.9906 40.8168 95.2806L44.4451 98.9089C50.2179 104.682 50.2179 114.044 44.4451 119.817C38.6723 125.59 29.3099 125.59 23.5371 119.817L19.9087 116.189C-6.88539 89.3945 -6.63389 45.6413 20.6632 19.165Z" fill="#2958FD"/>
<path d="M51.222 85.9234C41.6384 76.3426 41.6384 60.8067 51.222 51.2232C60.8055 41.6424 76.3414 41.6424 85.9222 51.2232C95.5029 60.8067 95.5029 76.3426 85.9222 85.9234C76.3414 95.5042 60.8055 95.5042 51.222 85.9234Z" fill="#2958FD"/>
<path d="M214.078 85.9234C204.497 76.3426 204.497 60.8067 214.078 51.2232C223.659 41.6424 239.198 41.6424 248.778 51.2232C258.362 60.8067 258.362 76.3426 248.778 85.9234C239.195 95.5042 223.659 95.5042 214.078 85.9234Z" fill="white"/>
<path d="M51.222 248.27C41.6384 238.689 41.6384 223.15 51.222 213.569C60.8055 203.986 76.3414 203.986 85.9222 213.569C95.5029 223.15 95.5029 238.689 85.9222 248.27C76.3414 257.853 60.8055 257.853 51.222 248.27Z" fill="white"/>
<path d="M214.078 248.27C204.497 238.689 204.497 223.15 214.078 213.569C223.659 203.986 239.198 203.986 248.778 213.569C258.362 223.15 258.362 238.689 248.778 248.27C239.195 257.853 223.659 257.853 214.078 248.27Z" fill="#2958FD"/>
<path d="M279.336 280.832C252.517 306.844 209.496 305.778 183.078 279.359L107.214 203.495C101.441 197.722 101.441 188.36 107.214 182.587C112.987 176.814 122.349 176.814 128.122 182.587L204.138 258.603C218.955 273.421 243.094 274.366 258.345 259.993C274.193 245.06 274.472 220.007 259.182 204.717L255.554 201.088C249.781 195.315 249.781 185.953 255.554 180.18C261.327 174.407 270.689 174.407 276.462 180.18L280.09 183.809C306.885 210.603 306.633 254.356 279.336 280.832Z" fill="#2958FD"/>
</svg>
